HIERARCHY
ROOT RootJoint
{
    OFFSET   0.000000   0.000000   0.000000
    CHANNELS 6 Xposition Yposition Zposition Xrotation Yrotation Zrotation
    JOINT pelvis_lowerback
    {
        OFFSET   0.000000   0.093605   0.000000
        CHANNELS 3 Xrotation Yrotation Zrotation
        JOINT lowerback_torso
        {
            OFFSET   0.000000   0.100000   0.000000
            CHANNELS 3 Xrotation Yrotation Zrotation
            JOINT torso_head
            {
                OFFSET   0.000000   0.282350   0.000000
                CHANNELS 3 Xrotation Yrotation Zrotation
                End Site
                {
                    OFFSET   0.000000   0.192650   0.000000
                }
            }
            JOINT rTorso_Clavicle
            {
                OFFSET  -0.001000   0.157500   0.000000
                CHANNELS 3 Xrotation Yrotation Zrotation
                JOINT rShoulder
                {
                    OFFSET  -0.117647   0.000000   0.000000
                    CHANNELS 3 Xrotation Yrotation Zrotation
                    JOINT rElbow
                    {
                        OFFSET  -0.245000   0.000000   0.000000
                        CHANNELS 3 Xrotation Yrotation Zrotation
                        JOINT rWrist
                        {
                            OFFSET  -0.240000   0.000000   0.000000
                            CHANNELS 3 Xrotation Yrotation Zrotation
                            End Site
                            {
                                OFFSET  -0.116353  -0.002500   0.000000
                            }
                        }
                    }
                }
            }
            JOINT lTorso_Clavicle
            {
                OFFSET   0.001000   0.157500   0.000000
                CHANNELS 3 Xrotation Yrotation Zrotation
                JOINT lShoulder
                {
                    OFFSET   0.117647   0.000000   0.000000
                    CHANNELS 3 Xrotation Yrotation Zrotation
                    JOINT lElbow
                    {
                        OFFSET   0.245000   0.000000   0.000000
                        CHANNELS 3 Xrotation Yrotation Zrotation
                        JOINT lWrist
                        {
                            OFFSET   0.240000   0.000000   0.000000
                            CHANNELS 3 Xrotation Yrotation Zrotation
                            End Site
                            {
                                OFFSET   0.116353  -0.002500   0.000000
                            }
                        }
                    }
                }
            }
        }
    }
    JOINT rHip
    {
        OFFSET  -0.100000  -0.051395   0.000000
        CHANNELS 3 Xrotation Yrotation Zrotation
        JOINT rKnee
        {
            OFFSET   0.000000  -0.410000   0.000000
            CHANNELS 3 Xrotation Yrotation Zrotation
            JOINT rAnkle
            {
                OFFSET   0.000000  -0.390000   0.000000
                CHANNELS 3 Xrotation Yrotation Zrotation
                JOINT rToeJoint
                {
                    OFFSET   0.000000  -0.050000   0.130000
                    CHANNELS 3 Xrotation Yrotation Zrotation
                    End Site
                    {
                        OFFSET  -0.010000   0.002000   0.060000
                    }
                }
            }
        }
    }
    JOINT lHip
    {
        OFFSET   0.100000  -0.051395   0.000000
        CHANNELS 3 Xrotation Yrotation Zrotation
        JOINT lKnee
        {
            OFFSET   0.000000  -0.410000   0.000000
            CHANNELS 3 Xrotation Yrotation Zrotation
            JOINT lAnkle
            {
                OFFSET   0.000000  -0.390000   0.000000
                CHANNELS 3 Xrotation Yrotation Zrotation
                JOINT lToeJoint
                {
                    OFFSET   0.000000  -0.050000   0.130000
                    CHANNELS 3 Xrotation Yrotation Zrotation
                    End Site
                    {
                        OFFSET   0.010000   0.002000   0.060000
                    }
                }
            }
        }
    }
}
MOTION
Frames: 12
Frame Time:   0.008333
 -2.376719   0.925631   3.975860   0.000000   0.000000   0.000000   0.000000   0.000000   0.000000   0.000000   0.000000   0.000000   0.000000   0.000000   0.000000   0.000000   0.000000   0.000000   0.000000   0.000000   0.000000   0.000000   0.000000   0.000000   0.000000   0.000000   0.000000   0.000000   0.000000   0.000000   0.000000   0.000000   0.000000   0.000000   0.000000   0.000000   0.000000   0.000000   0.000000   0.000000   0.000000   0.000000   0.000000   0.000000   0.000000   0.000000   0.000000   0.000000   0.000000   0.000000   0.000000   0.000000   0.000000   0.000000   0.000000   0.000000   0.000000   0.000000   0.000000   0.000000   0.000000   0.000000   0.000000
 -2.376598   0.926408   3.976261  -0.598624   0.043314   0.041323   0.515762   0.042243  -0.036045   0.255278  -0.176996  -0.006950  -0.144581   0.092890   0.066298   0.164973  -0.197698   0.642793   0.830755   0.305884   1.915970   0.015871   0.708013  -0.007298   0.525812  -0.441245  -2.870390   0.258103   0.228154  -0.786744   1.137128  -0.126787  -1.797293   0.016688  -0.735670   0.010161   0.563204   0.302970   2.930913   0.454379   0.176478  -0.197609   0.814789   0.001127   0.001556  -0.962767  -0.102687   0.022206  -0.183553  -0.000212  -0.000190   0.477230  -0.115816   0.087100   0.791478  -0.000888  -0.000491  -0.921597   0.152821   0.052246   0.304639  -0.000477   0.000214
 -2.376467   0.927697   3.976846  -1.240736   0.101679   0.089902   0.985974   0.067042  -0.072804   0.554006  -0.365370  -0.019010  -0.260288   0.180018   0.136178   0.329103  -0.329750   2.065486   1.631822   0.690478   4.462032   0.037140   1.405833  -0.012566   1.080637  -0.660530  -4.959677   0.517194   0.377790  -2.371049   2.244386  -0.345001  -4.246174   0.039071  -1.456392   0.017681   1.170154   0.398239   5.078104   0.950793   0.344015  -0.517807   1.713185   0.003109   0.002955  -1.862527  -0.199778   0.040653  -0.401334  -0.000648  -0.000406   1.015815  -0.221263   0.286671   1.669327  -0.002616  -0.000688  -1.782502   0.297254   0.104035   0.542423  -0.000997   0.000378
 -2.376344   0.929035   3.977559  -1.848822   0.159404   0.140303   1.396083   0.080257  -0.110398   0.819800  -0.552037  -0.035220  -0.369348   0.261055   0.203818   0.482817  -0.409964   3.953311   2.395510   1.138717   7.421403   0.058159   2.069039  -0.015822   1.618700  -0.769349  -6.139959   0.760815   0.460674  -4.423553   3.314633  -0.651409  -7.121723   0.061311  -2.142516   0.022697   1.760396   0.381906   6.297154   1.430663   0.493536  -0.930458   2.578870   0.005348   0.003786  -2.701363  -0.292050   0.055771  -0.605367  -0.001137  -0.000544   1.556711  -0.311483   0.584533   2.520536  -0.004677  -0.000641  -2.585188   0.433052   0.155191   0.755661  -0.001533   0.000507
 -2.376241   0.930081   3.978369  -2.411663   0.208308   0.191260   1.754610   0.085474  -0.151840   1.046151  -0.733805  -0.059212  -0.476298   0.336557   0.269306   0.626607  -0.457150   6.096681   3.121433   1.643802  10.657066   0.076309   2.694606  -0.017607   2.137774  -0.811928  -6.644748   0.987357   0.497931  -6.740761   4.333970  -1.035774 -10.237642   0.080560  -2.792269   0.025810   2.331504   0.288373   6.806904   1.882757   0.626200  -1.414271   3.392464   0.007495   0.004090  -3.484780  -0.379611   0.068032  -0.799038  -0.001622  -0.000612   2.087024  -0.388058   0.963599   3.326499  -0.006756  -0.000469  -3.334839   0.560535   0.205523   0.944684  -0.002009   0.000589
 -2.376199   0.930569   3.979254  -2.930953   0.244880   0.243829   2.070509   0.084918  -0.204283   1.239106  -0.909227  -0.102998  -0.580323   0.406835   0.334884   0.761609  -0.485748   8.360903   3.808599   2.199072  14.078924   0.090501   3.281770  -0.018361   2.636861  -0.813546  -6.690187   1.197399   0.506020  -9.216163   5.260590  -1.470606 -13.369214   0.095361  -3.406042   0.027351   2.883175   0.133676   6.778626   2.305848   0.743855  -1.950896   4.153261   0.009350   0.003995  -4.216685  -0.462518   0.077821  -0.982810  -0.002060  -0.000626   2.603185  -0.452750   1.408789   4.086341  -0.008689  -0.000242  -4.035117   0.679980   0.254776   1.112300  -0.002399   0.000627
 -2.376218   0.930302   3.980191  -3.410694   0.268477   0.295466   2.351119   0.080406  -0.267220   1.405620  -1.077056  -0.159469  -0.680184   0.472188   0.395256   0.889955  -0.504893  10.673645   4.441799   2.786846  17.559259   0.100425   3.831604  -0.018342   3.115846  -0.786476  -6.408652   1.391598   0.497372 -11.740903   6.098774  -1.940270 -16.440085   0.105480  -3.983807   0.027790   3.412485  -0.062414   6.407226   2.700867   0.848289  -2.524626   4.863975   0.010844   0.003631  -4.900390  -0.540768   0.085560  -1.155992  -0.002428  -0.000600   3.103545  -0.507054   1.906781   4.802242  -0.010367   0.000002  -4.689218   0.791796   0.302813   1.261548  -0.002690   0.000632
 -2.376250   0.928526   3.980538  -3.524592   0.242346   0.270437   2.357764   0.071331  -0.233014   1.528869  -1.205048  -0.206346  -0.925444   0.393924   0.357299   1.105940  -0.357722  12.434475   5.093753   3.285410  20.655897   0.109435   4.502662  -0.020255   3.532165  -0.671415  -4.912361   1.668452   0.462848 -13.463653   6.772883  -2.405178 -19.499241   0.112788  -4.640187   0.028913   3.892704  -0.411627   4.950408   2.583408   0.726834  -2.971006   5.662304   0.011907   0.001358  -5.215734  -0.615134   0.326205  -1.053807  -0.001728  -0.000683   3.251009  -0.427471   2.434204   5.002590  -0.009162   0.000198  -5.037416   0.902567   0.259661   1.415866  -0.002763   0.000748
 -2.376271   0.925483   3.980611  -3.595602   0.229945   0.233261   2.405039   0.055711  -0.186225   1.637446  -1.322820  -0.237224  -1.168580   0.314064   0.315355   1.286141  -0.178982  13.868617   5.671272   3.800303  23.397832   0.111531   5.139179  -0.021483   3.940917  -0.488057  -3.543413   1.911100   0.402821 -14.847084   7.375955  -2.877542 -22.205707   0.113338  -5.260181   0.029321   4.352214  -0.820746   3.608929   2.425708   0.600915  -3.359962   6.392578   0.012155  -0.000305  -5.504792  -0.687672   0.550644  -0.924511  -0.001146  -0.000800   3.309220  -0.350995   2.920691   5.086119  -0.007652   0.000245  -5.365425   1.006617   0.220173   1.564737  -0.002730   0.000839
 -2.376273   0.921316   3.980543  -3.653739   0.226119   0.193564   2.482224   0.044313  -0.134757   1.752534  -1.428608  -0.256671  -1.391518   0.239164   0.275557   1.435377   0.010179  15.063448   6.181894   4.315073  25.850842   0.109184   5.738917  -0.022058   4.333517  -0.282092  -2.436239   2.122744   0.329888 -15.984754   7.915452  -3.345321 -24.618117   0.109629  -5.841711   0.029013   4.788022  -1.231268   2.537221   2.272912   0.484359  -3.705556   7.064800   0.011884  -0.001427  -5.774479  -0.756303   0.759838  -0.803551  -0.000726  -0.000860   3.311645  -0.280523   3.357493   5.128432  -0.006266   0.000240  -5.673079   1.103680   0.183840   1.699803  -0.002596   0.000884
 -2.376256   0.916126   3.980410  -3.704854   0.226669   0.153255   2.576913   0.040126  -0.079734   1.872978  -1.520947  -0.266847  -1.594528   0.169416   0.238177   1.561125   0.197803  16.075217   6.635105   4.817734  28.063405   0.104081   6.301298  -0.022059   4.708406  -0.073710  -1.546212   2.311385   0.256848 -16.935207   8.400709  -3.797161 -26.786720   0.103362  -6.384354   0.028076   5.200248  -1.621686   1.691544   2.134845   0.376532  -4.012578   7.688961   0.011293  -0.002160  -6.026019  -0.821014   0.954861  -0.691321  -0.000428  -0.000879   3.275142  -0.215876   3.745696   5.148547  -0.005072   0.000212  -5.960788   1.194117   0.150301   1.824032  -0.002403   0.000894
 -2.376265   0.916385   3.980718  -3.933896   0.173430   0.255272   2.753613   0.062054  -0.145911   2.076285  -1.586898  -0.320282  -1.774153   0.105127   0.199614   1.666692   0.397849  17.327507   7.031746   5.315864  30.193433   0.099208   6.817010  -0.021427   5.065367   0.060897  -0.886320   2.479173   0.177336 -18.081133   8.832941  -4.237325 -28.840423   0.097262  -6.875217   0.026571   5.588240  -1.879540   1.100975   2.031332   0.383066  -4.157705   8.420466   0.009229  -0.002320  -6.363915  -0.747005   1.371390  -0.673793  -0.000400  -0.000703   3.302491  -0.201869   3.656040   5.607247  -0.004124   0.000136  -5.948906   1.199717  -0.112000   1.421708  -0.002776   0.000769
